<svg xmlns="http://www.w3.org/2000/svg" width="1200" height="630" viewBox="0 0 1200 630">
  <rect width="1200" height="630" fill="#f3e7c5"/>
  <g opacity=".35" stroke="#8db2cc" stroke-width="2">
    <path d="M0 90h1200M0 150h1200M0 210h1200M0 270h1200M0 330h1200M0 390h1200M0 450h1200M0 510h1200M0 570h1200"/>
  </g>
  <path d="M105 0v630" stroke="#c9544d" stroke-width="4" opacity=".55"/>
  <g transform="translate(725 65)">
    <rect width="390" height="500" rx="12" fill="#fffaf0" stroke="#29486b" stroke-width="7" transform="rotate(2 195 250)"/>
    <circle cx="195" cy="245" r="145" fill="#efbd94" stroke="#29486b" stroke-width="9"/>
    <path d="M59 229c15-157 259-170 278 4-58-45-183-68-278-4Z" fill="#4d3937" stroke="#29486b" stroke-width="9" stroke-linejoin="round"/>
    <circle cx="144" cy="246" r="10" fill="#29486b"/>
    <circle cx="247" cy="246" r="10" fill="#29486b"/>
    <path d="M151 331q44 43 89 0" fill="none" stroke="#29486b" stroke-width="10" stroke-linecap="round"/>
    <text x="195" y="455" text-anchor="middle" fill="#c9544d" font-size="39" font-weight="700" font-family="sans-serif">우리 반 친구</text>
  </g>
  <g fill="#29486b" font-family="sans-serif">
    <text x="150" y="125" font-size="30" font-weight="700" letter-spacing="5">2000—2010</text>
    <text x="150" y="205" font-size="55" font-weight="800">나의 초등학교 시절엔</text>
    <text x="150" y="290" font-size="76" font-weight="900">어떤 친구가</text>
    <text x="150" y="372" font-size="76" font-weight="900">있었을까?</text>
    <text x="150" y="465" font-size="30">얼굴 조각을 하나씩 멈춰</text>
    <text x="150" y="507" font-size="30">친구를 만들어 보세요.</text>
  </g>
  <g fill="#c9544d" font-family="sans-serif" font-weight="800">
    <text x="90" y="65" font-size="50" transform="rotate(-12 90 65)">★</text>
    <text x="610" y="560" font-size="58" transform="rotate(10 610 560)">♡</text>
  </g>
</svg>
